<mxfile host="app.diagrams.net" agent="Mozilla/5.0 (X11; Linux x86_64; rv:109.0) Gecko/20100101 Firefox/115.0" version="26.1.1">
  <diagram name="Page-1" id="kEcV-ec3RIfDf9ky3xr7">
    <mxGraphModel dx="1674" dy="831" grid="1" gridSize="10" guides="1" tooltips="1" connect="1" arrows="1" fold="1" page="1" pageScale="1" pageWidth="2339" pageHeight="3300" math="0" shadow="0">
      <root>
        <mxCell id="0" />
        <mxCell id="1" parent="0" />
        <mxCell id="CkNUCaQ58HvlYN-jJhcS-1" value="anime" style="rounded=0;whiteSpace=wrap;html=1;" vertex="1" parent="1">
          <mxGeometry x="690" y="240" width="120" height="60" as="geometry" />
        </mxCell>
        <mxCell id="CkNUCaQ58HvlYN-jJhcS-2" value="genre" style="rounded=0;whiteSpace=wrap;html=1;" vertex="1" parent="1">
          <mxGeometry x="260" y="240" width="120" height="60" as="geometry" />
        </mxCell>
        <mxCell id="CkNUCaQ58HvlYN-jJhcS-3" value="ID" style="ellipse;whiteSpace=wrap;html=1;" vertex="1" parent="1">
          <mxGeometry x="335" y="40" width="110" height="40" as="geometry" />
        </mxCell>
        <mxCell id="CkNUCaQ58HvlYN-jJhcS-4" value="name" style="ellipse;whiteSpace=wrap;html=1;" vertex="1" parent="1">
          <mxGeometry x="455" y="40" width="110" height="40" as="geometry" />
        </mxCell>
        <mxCell id="CkNUCaQ58HvlYN-jJhcS-5" value="rating" style="ellipse;whiteSpace=wrap;html=1;" vertex="1" parent="1">
          <mxGeometry x="575" y="40" width="110" height="40" as="geometry" />
        </mxCell>
        <mxCell id="CkNUCaQ58HvlYN-jJhcS-6" value="description" style="ellipse;whiteSpace=wrap;html=1;" vertex="1" parent="1">
          <mxGeometry x="695" y="40" width="110" height="40" as="geometry" />
        </mxCell>
        <mxCell id="CkNUCaQ58HvlYN-jJhcS-7" value="air_date" style="ellipse;whiteSpace=wrap;html=1;" vertex="1" parent="1">
          <mxGeometry x="815" y="40" width="110" height="40" as="geometry" />
        </mxCell>
        <mxCell id="CkNUCaQ58HvlYN-jJhcS-8" value="end_date" style="ellipse;whiteSpace=wrap;html=1;" vertex="1" parent="1">
          <mxGeometry x="935" y="40" width="110" height="40" as="geometry" />
        </mxCell>
        <mxCell id="CkNUCaQ58HvlYN-jJhcS-10" value="type" style="ellipse;whiteSpace=wrap;html=1;" vertex="1" parent="1">
          <mxGeometry x="1055" y="40" width="110" height="40" as="geometry" />
        </mxCell>
        <mxCell id="CkNUCaQ58HvlYN-jJhcS-11" value="" style="endArrow=none;html=1;rounded=0;entryX=0.5;entryY=1;entryDx=0;entryDy=0;exitX=0.5;exitY=0;exitDx=0;exitDy=0;" edge="1" parent="1" source="CkNUCaQ58HvlYN-jJhcS-1" target="CkNUCaQ58HvlYN-jJhcS-3">
          <mxGeometry width="50" height="50" relative="1" as="geometry">
            <mxPoint x="540" y="200" as="sourcePoint" />
            <mxPoint x="590" y="150" as="targetPoint" />
          </mxGeometry>
        </mxCell>
        <mxCell id="CkNUCaQ58HvlYN-jJhcS-12" value="" style="endArrow=none;html=1;rounded=0;entryX=0.5;entryY=1;entryDx=0;entryDy=0;exitX=0.5;exitY=0;exitDx=0;exitDy=0;" edge="1" parent="1" source="CkNUCaQ58HvlYN-jJhcS-1" target="CkNUCaQ58HvlYN-jJhcS-4">
          <mxGeometry width="50" height="50" relative="1" as="geometry">
            <mxPoint x="760" y="190" as="sourcePoint" />
            <mxPoint x="405" y="90" as="targetPoint" />
          </mxGeometry>
        </mxCell>
        <mxCell id="CkNUCaQ58HvlYN-jJhcS-13" value="" style="endArrow=none;html=1;rounded=0;entryX=0.5;entryY=1;entryDx=0;entryDy=0;exitX=0.5;exitY=0;exitDx=0;exitDy=0;" edge="1" parent="1" source="CkNUCaQ58HvlYN-jJhcS-1" target="CkNUCaQ58HvlYN-jJhcS-5">
          <mxGeometry width="50" height="50" relative="1" as="geometry">
            <mxPoint x="770" y="200" as="sourcePoint" />
            <mxPoint x="415" y="100" as="targetPoint" />
          </mxGeometry>
        </mxCell>
        <mxCell id="CkNUCaQ58HvlYN-jJhcS-14" value="" style="endArrow=none;html=1;rounded=0;entryX=0.5;entryY=1;entryDx=0;entryDy=0;exitX=0.5;exitY=0;exitDx=0;exitDy=0;" edge="1" parent="1" source="CkNUCaQ58HvlYN-jJhcS-1" target="CkNUCaQ58HvlYN-jJhcS-6">
          <mxGeometry width="50" height="50" relative="1" as="geometry">
            <mxPoint x="780" y="270" as="sourcePoint" />
            <mxPoint x="425" y="110" as="targetPoint" />
          </mxGeometry>
        </mxCell>
        <mxCell id="CkNUCaQ58HvlYN-jJhcS-15" value="" style="endArrow=none;html=1;rounded=0;entryX=0.5;entryY=1;entryDx=0;entryDy=0;exitX=0.5;exitY=0;exitDx=0;exitDy=0;" edge="1" parent="1" source="CkNUCaQ58HvlYN-jJhcS-1" target="CkNUCaQ58HvlYN-jJhcS-7">
          <mxGeometry width="50" height="50" relative="1" as="geometry">
            <mxPoint x="790" y="280" as="sourcePoint" />
            <mxPoint x="435" y="120" as="targetPoint" />
          </mxGeometry>
        </mxCell>
        <mxCell id="CkNUCaQ58HvlYN-jJhcS-16" value="" style="endArrow=none;html=1;rounded=0;entryX=0.5;entryY=1;entryDx=0;entryDy=0;exitX=0.5;exitY=0;exitDx=0;exitDy=0;" edge="1" parent="1" source="CkNUCaQ58HvlYN-jJhcS-1" target="CkNUCaQ58HvlYN-jJhcS-8">
          <mxGeometry width="50" height="50" relative="1" as="geometry">
            <mxPoint x="800" y="290" as="sourcePoint" />
            <mxPoint x="445" y="130" as="targetPoint" />
          </mxGeometry>
        </mxCell>
        <mxCell id="CkNUCaQ58HvlYN-jJhcS-17" value="" style="endArrow=none;html=1;rounded=0;entryX=0.5;entryY=1;entryDx=0;entryDy=0;exitX=0.5;exitY=0;exitDx=0;exitDy=0;" edge="1" parent="1" source="CkNUCaQ58HvlYN-jJhcS-1" target="CkNUCaQ58HvlYN-jJhcS-10">
          <mxGeometry width="50" height="50" relative="1" as="geometry">
            <mxPoint x="810" y="300" as="sourcePoint" />
            <mxPoint x="455" y="140" as="targetPoint" />
          </mxGeometry>
        </mxCell>
        <mxCell id="CkNUCaQ58HvlYN-jJhcS-18" value="ID" style="ellipse;whiteSpace=wrap;html=1;" vertex="1" parent="1">
          <mxGeometry x="80" y="225" width="110" height="40" as="geometry" />
        </mxCell>
        <mxCell id="CkNUCaQ58HvlYN-jJhcS-19" value="name" style="ellipse;whiteSpace=wrap;html=1;" vertex="1" parent="1">
          <mxGeometry x="80" y="275" width="110" height="40" as="geometry" />
        </mxCell>
        <mxCell id="CkNUCaQ58HvlYN-jJhcS-20" value="" style="endArrow=none;html=1;rounded=0;exitX=1;exitY=0.5;exitDx=0;exitDy=0;entryX=0;entryY=0.5;entryDx=0;entryDy=0;" edge="1" parent="1" source="CkNUCaQ58HvlYN-jJhcS-18" target="CkNUCaQ58HvlYN-jJhcS-2">
          <mxGeometry width="50" height="50" relative="1" as="geometry">
            <mxPoint x="330" y="180" as="sourcePoint" />
            <mxPoint x="380" y="130" as="targetPoint" />
          </mxGeometry>
        </mxCell>
        <mxCell id="CkNUCaQ58HvlYN-jJhcS-21" value="" style="endArrow=none;html=1;rounded=0;exitX=1;exitY=0.5;exitDx=0;exitDy=0;entryX=0;entryY=0.5;entryDx=0;entryDy=0;" edge="1" parent="1" source="CkNUCaQ58HvlYN-jJhcS-19" target="CkNUCaQ58HvlYN-jJhcS-2">
          <mxGeometry width="50" height="50" relative="1" as="geometry">
            <mxPoint x="200" y="255" as="sourcePoint" />
            <mxPoint x="270" y="280" as="targetPoint" />
          </mxGeometry>
        </mxCell>
        <mxCell id="CkNUCaQ58HvlYN-jJhcS-22" value="has" style="rhombus;whiteSpace=wrap;html=1;" vertex="1" parent="1">
          <mxGeometry x="495" y="230" width="80" height="80" as="geometry" />
        </mxCell>
        <mxCell id="CkNUCaQ58HvlYN-jJhcS-23" value="" style="endArrow=none;html=1;rounded=0;exitX=1;exitY=0.5;exitDx=0;exitDy=0;entryX=0;entryY=0.5;entryDx=0;entryDy=0;" edge="1" parent="1" source="CkNUCaQ58HvlYN-jJhcS-2" target="CkNUCaQ58HvlYN-jJhcS-22">
          <mxGeometry width="50" height="50" relative="1" as="geometry">
            <mxPoint x="430" y="270" as="sourcePoint" />
            <mxPoint x="480" y="220" as="targetPoint" />
          </mxGeometry>
        </mxCell>
        <mxCell id="CkNUCaQ58HvlYN-jJhcS-26" value="(0. N)" style="edgeLabel;html=1;align=center;verticalAlign=middle;resizable=0;points=[];" vertex="1" connectable="0" parent="CkNUCaQ58HvlYN-jJhcS-23">
          <mxGeometry x="-0.6348" relative="1" as="geometry">
            <mxPoint as="offset" />
          </mxGeometry>
        </mxCell>
        <mxCell id="CkNUCaQ58HvlYN-jJhcS-24" value="" style="endArrow=none;html=1;rounded=0;exitX=1;exitY=0.5;exitDx=0;exitDy=0;entryX=0;entryY=0.5;entryDx=0;entryDy=0;" edge="1" parent="1" source="CkNUCaQ58HvlYN-jJhcS-22" target="CkNUCaQ58HvlYN-jJhcS-1">
          <mxGeometry width="50" height="50" relative="1" as="geometry">
            <mxPoint x="390" y="280" as="sourcePoint" />
            <mxPoint x="505" y="280" as="targetPoint" />
          </mxGeometry>
        </mxCell>
        <mxCell id="CkNUCaQ58HvlYN-jJhcS-27" value="(1, N)" style="edgeLabel;html=1;align=center;verticalAlign=middle;resizable=0;points=[];" vertex="1" connectable="0" parent="CkNUCaQ58HvlYN-jJhcS-24">
          <mxGeometry x="0.4957" y="1" relative="1" as="geometry">
            <mxPoint as="offset" />
          </mxGeometry>
        </mxCell>
        <mxCell id="CkNUCaQ58HvlYN-jJhcS-28" value="episode" style="rounded=0;whiteSpace=wrap;html=1;" vertex="1" parent="1">
          <mxGeometry x="1210" y="240" width="120" height="60" as="geometry" />
        </mxCell>
        <mxCell id="CkNUCaQ58HvlYN-jJhcS-29" value="ID" style="ellipse;whiteSpace=wrap;html=1;" vertex="1" parent="1">
          <mxGeometry x="1420" y="200" width="110" height="40" as="geometry" />
        </mxCell>
        <mxCell id="CkNUCaQ58HvlYN-jJhcS-30" value="name" style="ellipse;whiteSpace=wrap;html=1;" vertex="1" parent="1">
          <mxGeometry x="1420" y="250" width="110" height="40" as="geometry" />
        </mxCell>
        <mxCell id="CkNUCaQ58HvlYN-jJhcS-35" value="dub" style="ellipse;whiteSpace=wrap;html=1;" vertex="1" parent="1">
          <mxGeometry x="1170" y="40" width="110" height="40" as="geometry" />
        </mxCell>
        <mxCell id="CkNUCaQ58HvlYN-jJhcS-36" value="" style="endArrow=none;html=1;rounded=0;entryX=0.5;entryY=1;entryDx=0;entryDy=0;exitX=0.5;exitY=0;exitDx=0;exitDy=0;" edge="1" parent="1" source="CkNUCaQ58HvlYN-jJhcS-1" target="CkNUCaQ58HvlYN-jJhcS-35">
          <mxGeometry width="50" height="50" relative="1" as="geometry">
            <mxPoint x="760" y="250" as="sourcePoint" />
            <mxPoint x="1120" y="90" as="targetPoint" />
          </mxGeometry>
        </mxCell>
        <mxCell id="CkNUCaQ58HvlYN-jJhcS-37" value="dub" style="ellipse;whiteSpace=wrap;html=1;" vertex="1" parent="1">
          <mxGeometry x="1420" y="300" width="110" height="40" as="geometry" />
        </mxCell>
        <mxCell id="CkNUCaQ58HvlYN-jJhcS-38" value="" style="endArrow=none;html=1;rounded=0;entryX=0;entryY=0.5;entryDx=0;entryDy=0;exitX=1;exitY=0.5;exitDx=0;exitDy=0;" edge="1" parent="1" source="CkNUCaQ58HvlYN-jJhcS-28" target="CkNUCaQ58HvlYN-jJhcS-29">
          <mxGeometry width="50" height="50" relative="1" as="geometry">
            <mxPoint x="1340" y="350" as="sourcePoint" />
            <mxPoint x="1390" y="300" as="targetPoint" />
          </mxGeometry>
        </mxCell>
        <mxCell id="CkNUCaQ58HvlYN-jJhcS-39" value="" style="endArrow=none;html=1;rounded=0;entryX=0;entryY=0.5;entryDx=0;entryDy=0;exitX=1;exitY=0.5;exitDx=0;exitDy=0;" edge="1" parent="1" source="CkNUCaQ58HvlYN-jJhcS-28" target="CkNUCaQ58HvlYN-jJhcS-30">
          <mxGeometry width="50" height="50" relative="1" as="geometry">
            <mxPoint x="1340" y="280" as="sourcePoint" />
            <mxPoint x="1430" y="230" as="targetPoint" />
          </mxGeometry>
        </mxCell>
        <mxCell id="CkNUCaQ58HvlYN-jJhcS-40" value="" style="endArrow=none;html=1;rounded=0;entryX=0;entryY=0.5;entryDx=0;entryDy=0;exitX=1;exitY=0.5;exitDx=0;exitDy=0;" edge="1" parent="1" source="CkNUCaQ58HvlYN-jJhcS-28" target="CkNUCaQ58HvlYN-jJhcS-37">
          <mxGeometry width="50" height="50" relative="1" as="geometry">
            <mxPoint x="1340" y="280" as="sourcePoint" />
            <mxPoint x="1430" y="280" as="targetPoint" />
          </mxGeometry>
        </mxCell>
        <mxCell id="CkNUCaQ58HvlYN-jJhcS-41" value="has" style="rhombus;whiteSpace=wrap;html=1;" vertex="1" parent="1">
          <mxGeometry x="975" y="230" width="80" height="80" as="geometry" />
        </mxCell>
        <mxCell id="CkNUCaQ58HvlYN-jJhcS-42" value="" style="endArrow=none;html=1;rounded=0;exitX=1;exitY=0.5;exitDx=0;exitDy=0;entryX=0;entryY=0.5;entryDx=0;entryDy=0;" edge="1" parent="1" source="CkNUCaQ58HvlYN-jJhcS-1" target="CkNUCaQ58HvlYN-jJhcS-41">
          <mxGeometry width="50" height="50" relative="1" as="geometry">
            <mxPoint x="880" y="290" as="sourcePoint" />
            <mxPoint x="930" y="240" as="targetPoint" />
          </mxGeometry>
        </mxCell>
        <mxCell id="CkNUCaQ58HvlYN-jJhcS-44" value="(0,N)" style="edgeLabel;html=1;align=center;verticalAlign=middle;resizable=0;points=[];" vertex="1" connectable="0" parent="CkNUCaQ58HvlYN-jJhcS-42">
          <mxGeometry x="-0.6364" relative="1" as="geometry">
            <mxPoint as="offset" />
          </mxGeometry>
        </mxCell>
        <mxCell id="CkNUCaQ58HvlYN-jJhcS-43" value="" style="endArrow=none;html=1;rounded=0;exitX=1;exitY=0.5;exitDx=0;exitDy=0;entryX=0;entryY=0.5;entryDx=0;entryDy=0;" edge="1" parent="1" source="CkNUCaQ58HvlYN-jJhcS-41" target="CkNUCaQ58HvlYN-jJhcS-28">
          <mxGeometry width="50" height="50" relative="1" as="geometry">
            <mxPoint x="820" y="280" as="sourcePoint" />
            <mxPoint x="985" y="280" as="targetPoint" />
          </mxGeometry>
        </mxCell>
        <mxCell id="CkNUCaQ58HvlYN-jJhcS-45" value="(1.1)" style="edgeLabel;html=1;align=center;verticalAlign=middle;resizable=0;points=[];" vertex="1" connectable="0" parent="CkNUCaQ58HvlYN-jJhcS-43">
          <mxGeometry x="0.5484" y="1" relative="1" as="geometry">
            <mxPoint as="offset" />
          </mxGeometry>
        </mxCell>
        <mxCell id="CkNUCaQ58HvlYN-jJhcS-46" value="user" style="rounded=0;whiteSpace=wrap;html=1;" vertex="1" parent="1">
          <mxGeometry x="690" y="700" width="120" height="60" as="geometry" />
        </mxCell>
        <mxCell id="CkNUCaQ58HvlYN-jJhcS-47" value="ID" style="ellipse;whiteSpace=wrap;html=1;" vertex="1" parent="1">
          <mxGeometry x="455" y="880" width="110" height="40" as="geometry" />
        </mxCell>
        <mxCell id="CkNUCaQ58HvlYN-jJhcS-48" value="username" style="ellipse;whiteSpace=wrap;html=1;" vertex="1" parent="1">
          <mxGeometry x="575" y="880" width="110" height="40" as="geometry" />
        </mxCell>
        <mxCell id="CkNUCaQ58HvlYN-jJhcS-49" value="registration_date" style="ellipse;whiteSpace=wrap;html=1;" vertex="1" parent="1">
          <mxGeometry x="940" y="880" width="110" height="40" as="geometry" />
        </mxCell>
        <mxCell id="CkNUCaQ58HvlYN-jJhcS-50" value="password" style="ellipse;whiteSpace=wrap;html=1;" vertex="1" parent="1">
          <mxGeometry x="695" y="880" width="110" height="40" as="geometry" />
        </mxCell>
        <mxCell id="CkNUCaQ58HvlYN-jJhcS-53" value="follows" style="rhombus;whiteSpace=wrap;html=1;" vertex="1" parent="1">
          <mxGeometry x="495" y="690" width="80" height="80" as="geometry" />
        </mxCell>
        <mxCell id="CkNUCaQ58HvlYN-jJhcS-54" value="" style="endArrow=none;html=1;rounded=0;exitX=0;exitY=0.75;exitDx=0;exitDy=0;" edge="1" parent="1">
          <mxGeometry width="50" height="50" relative="1" as="geometry">
            <mxPoint x="690" y="746" as="sourcePoint" />
            <mxPoint x="560" y="746" as="targetPoint" />
          </mxGeometry>
        </mxCell>
        <mxCell id="CkNUCaQ58HvlYN-jJhcS-57" value="(0, 2000)" style="edgeLabel;html=1;align=center;verticalAlign=middle;resizable=0;points=[];" vertex="1" connectable="0" parent="CkNUCaQ58HvlYN-jJhcS-54">
          <mxGeometry x="-0.5538" y="1" relative="1" as="geometry">
            <mxPoint x="-2" as="offset" />
          </mxGeometry>
        </mxCell>
        <mxCell id="CkNUCaQ58HvlYN-jJhcS-55" value="" style="endArrow=none;html=1;rounded=0;entryX=0;entryY=0.25;entryDx=0;entryDy=0;" edge="1" parent="1" target="CkNUCaQ58HvlYN-jJhcS-46">
          <mxGeometry width="50" height="50" relative="1" as="geometry">
            <mxPoint x="560" y="715" as="sourcePoint" />
            <mxPoint x="565" y="756" as="targetPoint" />
          </mxGeometry>
        </mxCell>
        <mxCell id="CkNUCaQ58HvlYN-jJhcS-58" value="(0, N)" style="edgeLabel;html=1;align=center;verticalAlign=middle;resizable=0;points=[];" vertex="1" connectable="0" parent="CkNUCaQ58HvlYN-jJhcS-55">
          <mxGeometry x="0.5077" relative="1" as="geometry">
            <mxPoint as="offset" />
          </mxGeometry>
        </mxCell>
        <mxCell id="CkNUCaQ58HvlYN-jJhcS-59" value="" style="endArrow=none;html=1;rounded=0;exitX=0.5;exitY=0;exitDx=0;exitDy=0;entryX=0.5;entryY=1;entryDx=0;entryDy=0;" edge="1" parent="1" source="CkNUCaQ58HvlYN-jJhcS-47" target="CkNUCaQ58HvlYN-jJhcS-46">
          <mxGeometry width="50" height="50" relative="1" as="geometry">
            <mxPoint x="620" y="900" as="sourcePoint" />
            <mxPoint x="670" y="850" as="targetPoint" />
          </mxGeometry>
        </mxCell>
        <mxCell id="CkNUCaQ58HvlYN-jJhcS-60" value="" style="endArrow=none;html=1;rounded=0;exitX=0.5;exitY=0;exitDx=0;exitDy=0;entryX=0.5;entryY=1;entryDx=0;entryDy=0;" edge="1" parent="1" source="CkNUCaQ58HvlYN-jJhcS-48" target="CkNUCaQ58HvlYN-jJhcS-46">
          <mxGeometry width="50" height="50" relative="1" as="geometry">
            <mxPoint x="580" y="890" as="sourcePoint" />
            <mxPoint x="760" y="770" as="targetPoint" />
          </mxGeometry>
        </mxCell>
        <mxCell id="CkNUCaQ58HvlYN-jJhcS-61" value="" style="endArrow=none;html=1;rounded=0;exitX=0.5;exitY=0;exitDx=0;exitDy=0;entryX=0.5;entryY=1;entryDx=0;entryDy=0;" edge="1" parent="1" source="CkNUCaQ58HvlYN-jJhcS-50" target="CkNUCaQ58HvlYN-jJhcS-46">
          <mxGeometry width="50" height="50" relative="1" as="geometry">
            <mxPoint x="700" y="890" as="sourcePoint" />
            <mxPoint x="760" y="770" as="targetPoint" />
          </mxGeometry>
        </mxCell>
        <mxCell id="CkNUCaQ58HvlYN-jJhcS-62" value="" style="endArrow=none;html=1;rounded=0;exitX=0.5;exitY=0;exitDx=0;exitDy=0;entryX=0.5;entryY=1;entryDx=0;entryDy=0;" edge="1" parent="1" source="CkNUCaQ58HvlYN-jJhcS-49" target="CkNUCaQ58HvlYN-jJhcS-46">
          <mxGeometry width="50" height="50" relative="1" as="geometry">
            <mxPoint x="820" y="890" as="sourcePoint" />
            <mxPoint x="760" y="770" as="targetPoint" />
          </mxGeometry>
        </mxCell>
        <mxCell id="CkNUCaQ58HvlYN-jJhcS-63" value="to watch" style="rhombus;whiteSpace=wrap;html=1;" vertex="1" parent="1">
          <mxGeometry x="810" y="460" width="80" height="80" as="geometry" />
        </mxCell>
        <mxCell id="CkNUCaQ58HvlYN-jJhcS-64" value="" style="endArrow=none;html=1;rounded=0;exitX=0.5;exitY=0;exitDx=0;exitDy=0;entryX=0.5;entryY=1;entryDx=0;entryDy=0;" edge="1" parent="1" source="CkNUCaQ58HvlYN-jJhcS-46" target="CkNUCaQ58HvlYN-jJhcS-63">
          <mxGeometry width="50" height="50" relative="1" as="geometry">
            <mxPoint x="720" y="670" as="sourcePoint" />
            <mxPoint x="770" y="620" as="targetPoint" />
          </mxGeometry>
        </mxCell>
        <mxCell id="CkNUCaQ58HvlYN-jJhcS-66" value="(0, N)" style="edgeLabel;html=1;align=center;verticalAlign=middle;resizable=0;points=[];" vertex="1" connectable="0" parent="CkNUCaQ58HvlYN-jJhcS-64">
          <mxGeometry x="-0.7125" relative="1" as="geometry">
            <mxPoint x="16" y="-28" as="offset" />
          </mxGeometry>
        </mxCell>
        <mxCell id="CkNUCaQ58HvlYN-jJhcS-65" value="" style="endArrow=none;html=1;rounded=0;exitX=0.5;exitY=0;exitDx=0;exitDy=0;entryX=0.5;entryY=1;entryDx=0;entryDy=0;" edge="1" parent="1" source="CkNUCaQ58HvlYN-jJhcS-63" target="CkNUCaQ58HvlYN-jJhcS-1">
          <mxGeometry width="50" height="50" relative="1" as="geometry">
            <mxPoint x="760" y="710" as="sourcePoint" />
            <mxPoint x="760" y="550" as="targetPoint" />
          </mxGeometry>
        </mxCell>
        <mxCell id="CkNUCaQ58HvlYN-jJhcS-67" value="(0, N)" style="edgeLabel;html=1;align=center;verticalAlign=middle;resizable=0;points=[];" vertex="1" connectable="0" parent="CkNUCaQ58HvlYN-jJhcS-65">
          <mxGeometry x="0.7125" y="1" relative="1" as="geometry">
            <mxPoint x="22" y="36" as="offset" />
          </mxGeometry>
        </mxCell>
        <mxCell id="CkNUCaQ58HvlYN-jJhcS-68" value="disliked" style="rhombus;whiteSpace=wrap;html=1;" vertex="1" parent="1">
          <mxGeometry x="1233" y="510" width="80" height="80" as="geometry" />
        </mxCell>
        <mxCell id="CkNUCaQ58HvlYN-jJhcS-69" value="liked" style="rhombus;whiteSpace=wrap;html=1;" vertex="1" parent="1">
          <mxGeometry x="1136" y="510" width="80" height="80" as="geometry" />
        </mxCell>
        <mxCell id="CkNUCaQ58HvlYN-jJhcS-71" value="" style="endArrow=none;html=1;rounded=0;exitX=1;exitY=0.5;exitDx=0;exitDy=0;entryX=0.5;entryY=1;entryDx=0;entryDy=0;" edge="1" parent="1" source="CkNUCaQ58HvlYN-jJhcS-46" target="CkNUCaQ58HvlYN-jJhcS-69">
          <mxGeometry width="50" height="50" relative="1" as="geometry">
            <mxPoint x="920" y="740" as="sourcePoint" />
            <mxPoint x="970" y="690" as="targetPoint" />
            <Array as="points">
              <mxPoint x="1176" y="730" />
            </Array>
          </mxGeometry>
        </mxCell>
        <mxCell id="CkNUCaQ58HvlYN-jJhcS-85" value="(0, N)" style="edgeLabel;html=1;align=center;verticalAlign=middle;resizable=0;points=[];" vertex="1" connectable="0" parent="CkNUCaQ58HvlYN-jJhcS-71">
          <mxGeometry x="0.8933" y="1" relative="1" as="geometry">
            <mxPoint as="offset" />
          </mxGeometry>
        </mxCell>
        <mxCell id="CkNUCaQ58HvlYN-jJhcS-72" value="" style="endArrow=none;html=1;rounded=0;entryX=0.5;entryY=1;entryDx=0;entryDy=0;exitX=1;exitY=0.5;exitDx=0;exitDy=0;" edge="1" parent="1" source="CkNUCaQ58HvlYN-jJhcS-46" target="CkNUCaQ58HvlYN-jJhcS-68">
          <mxGeometry width="50" height="50" relative="1" as="geometry">
            <mxPoint x="830" y="760" as="sourcePoint" />
            <mxPoint x="1240" y="600" as="targetPoint" />
            <Array as="points">
              <mxPoint x="1273" y="730" />
            </Array>
          </mxGeometry>
        </mxCell>
        <mxCell id="CkNUCaQ58HvlYN-jJhcS-86" value="(0, N)" style="edgeLabel;html=1;align=center;verticalAlign=middle;resizable=0;points=[];" vertex="1" connectable="0" parent="CkNUCaQ58HvlYN-jJhcS-72">
          <mxGeometry x="0.8972" relative="1" as="geometry">
            <mxPoint as="offset" />
          </mxGeometry>
        </mxCell>
        <mxCell id="CkNUCaQ58HvlYN-jJhcS-73" value="" style="endArrow=none;html=1;rounded=0;exitX=0.5;exitY=0;exitDx=0;exitDy=0;entryX=0.5;entryY=1;entryDx=0;entryDy=0;" edge="1" parent="1" source="CkNUCaQ58HvlYN-jJhcS-69" target="CkNUCaQ58HvlYN-jJhcS-28">
          <mxGeometry width="50" height="50" relative="1" as="geometry">
            <mxPoint x="1000" y="510" as="sourcePoint" />
            <mxPoint x="1050" y="460" as="targetPoint" />
          </mxGeometry>
        </mxCell>
        <mxCell id="CkNUCaQ58HvlYN-jJhcS-74" value="" style="endArrow=none;html=1;rounded=0;exitX=0.5;exitY=0;exitDx=0;exitDy=0;entryX=0.5;entryY=1;entryDx=0;entryDy=0;" edge="1" parent="1" source="CkNUCaQ58HvlYN-jJhcS-68" target="CkNUCaQ58HvlYN-jJhcS-28">
          <mxGeometry width="50" height="50" relative="1" as="geometry">
            <mxPoint x="1240" y="520" as="sourcePoint" />
            <mxPoint x="1311" y="320" as="targetPoint" />
          </mxGeometry>
        </mxCell>
        <mxCell id="CkNUCaQ58HvlYN-jJhcS-75" value="email" style="ellipse;whiteSpace=wrap;html=1;" vertex="1" parent="1">
          <mxGeometry x="820" y="880" width="110" height="40" as="geometry" />
        </mxCell>
        <mxCell id="CkNUCaQ58HvlYN-jJhcS-76" value="" style="endArrow=none;html=1;rounded=0;exitX=0.5;exitY=0;exitDx=0;exitDy=0;entryX=0.5;entryY=1;entryDx=0;entryDy=0;" edge="1" parent="1" source="CkNUCaQ58HvlYN-jJhcS-75" target="CkNUCaQ58HvlYN-jJhcS-46">
          <mxGeometry width="50" height="50" relative="1" as="geometry">
            <mxPoint x="1065" y="890" as="sourcePoint" />
            <mxPoint x="760" y="800" as="targetPoint" />
          </mxGeometry>
        </mxCell>
        <mxCell id="CkNUCaQ58HvlYN-jJhcS-77" value="favorited" style="rhombus;whiteSpace=wrap;html=1;" vertex="1" parent="1">
          <mxGeometry x="615" y="460" width="80" height="80" as="geometry" />
        </mxCell>
        <mxCell id="CkNUCaQ58HvlYN-jJhcS-78" value="" style="endArrow=none;html=1;rounded=0;exitX=0.5;exitY=0;exitDx=0;exitDy=0;entryX=0.5;entryY=1;entryDx=0;entryDy=0;" edge="1" parent="1" source="CkNUCaQ58HvlYN-jJhcS-46" target="CkNUCaQ58HvlYN-jJhcS-77">
          <mxGeometry width="50" height="50" relative="1" as="geometry">
            <mxPoint x="630" y="640" as="sourcePoint" />
            <mxPoint x="680" y="590" as="targetPoint" />
          </mxGeometry>
        </mxCell>
        <mxCell id="CkNUCaQ58HvlYN-jJhcS-81" value="(0, N)" style="edgeLabel;html=1;align=center;verticalAlign=middle;resizable=0;points=[];" vertex="1" connectable="0" parent="CkNUCaQ58HvlYN-jJhcS-78">
          <mxGeometry x="-0.364" relative="1" as="geometry">
            <mxPoint as="offset" />
          </mxGeometry>
        </mxCell>
        <mxCell id="CkNUCaQ58HvlYN-jJhcS-79" value="" style="endArrow=none;html=1;rounded=0;exitX=0.5;exitY=0;exitDx=0;exitDy=0;entryX=0.5;entryY=1;entryDx=0;entryDy=0;" edge="1" parent="1" source="CkNUCaQ58HvlYN-jJhcS-77" target="CkNUCaQ58HvlYN-jJhcS-1">
          <mxGeometry width="50" height="50" relative="1" as="geometry">
            <mxPoint x="760" y="710" as="sourcePoint" />
            <mxPoint x="720" y="550" as="targetPoint" />
          </mxGeometry>
        </mxCell>
        <mxCell id="CkNUCaQ58HvlYN-jJhcS-80" value="(0, N)" style="edgeLabel;html=1;align=center;verticalAlign=middle;resizable=0;points=[];" vertex="1" connectable="0" parent="CkNUCaQ58HvlYN-jJhcS-79">
          <mxGeometry x="0.2627" relative="1" as="geometry">
            <mxPoint as="offset" />
          </mxGeometry>
        </mxCell>
        <mxCell id="CkNUCaQ58HvlYN-jJhcS-88" value="(0, N)" style="edgeLabel;html=1;align=center;verticalAlign=middle;resizable=0;points=[];" vertex="1" connectable="0" parent="1">
          <mxGeometry x="1185" y="610" as="geometry">
            <mxPoint x="3" y="-135" as="offset" />
          </mxGeometry>
        </mxCell>
        <mxCell id="CkNUCaQ58HvlYN-jJhcS-89" value="(0, N)" style="edgeLabel;html=1;align=center;verticalAlign=middle;resizable=0;points=[];" vertex="1" connectable="0" parent="1">
          <mxGeometry x="1273" y="630" as="geometry">
            <mxPoint x="-4" y="-153" as="offset" />
          </mxGeometry>
        </mxCell>
        <mxCell id="CkNUCaQ58HvlYN-jJhcS-93" value="comment" style="rounded=0;whiteSpace=wrap;html=1;" vertex="1" parent="1">
          <mxGeometry x="1350" y="520" width="120" height="60" as="geometry" />
        </mxCell>
        <mxCell id="CkNUCaQ58HvlYN-jJhcS-94" value="ID" style="ellipse;whiteSpace=wrap;html=1;" vertex="1" parent="1">
          <mxGeometry x="1510" y="505" width="110" height="40" as="geometry" />
        </mxCell>
        <mxCell id="CkNUCaQ58HvlYN-jJhcS-95" value="comment" style="ellipse;whiteSpace=wrap;html=1;" vertex="1" parent="1">
          <mxGeometry x="1510" y="555" width="110" height="40" as="geometry" />
        </mxCell>
        <mxCell id="CkNUCaQ58HvlYN-jJhcS-97" value="" style="endArrow=none;html=1;rounded=0;exitX=1;exitY=0.5;exitDx=0;exitDy=0;entryX=0.5;entryY=1;entryDx=0;entryDy=0;" edge="1" parent="1" source="CkNUCaQ58HvlYN-jJhcS-46" target="CkNUCaQ58HvlYN-jJhcS-99">
          <mxGeometry width="50" height="50" relative="1" as="geometry">
            <mxPoint x="1350" y="710" as="sourcePoint" />
            <mxPoint x="1350" y="730" as="targetPoint" />
            <Array as="points">
              <mxPoint x="1370" y="730" />
            </Array>
          </mxGeometry>
        </mxCell>
        <mxCell id="CkNUCaQ58HvlYN-jJhcS-105" value="(0.N)" style="edgeLabel;html=1;align=center;verticalAlign=middle;resizable=0;points=[];" vertex="1" connectable="0" parent="CkNUCaQ58HvlYN-jJhcS-97">
          <mxGeometry x="0.9492" y="-1" relative="1" as="geometry">
            <mxPoint as="offset" />
          </mxGeometry>
        </mxCell>
        <mxCell id="CkNUCaQ58HvlYN-jJhcS-98" value="commented" style="rhombus;whiteSpace=wrap;html=1;" vertex="1" parent="1">
          <mxGeometry x="1420" y="620" width="80" height="80" as="geometry" />
        </mxCell>
        <mxCell id="CkNUCaQ58HvlYN-jJhcS-99" value="liked" style="rhombus;whiteSpace=wrap;html=1;" vertex="1" parent="1">
          <mxGeometry x="1330" y="620" width="80" height="80" as="geometry" />
        </mxCell>
        <mxCell id="CkNUCaQ58HvlYN-jJhcS-100" value="" style="endArrow=none;html=1;rounded=0;exitX=1;exitY=0.5;exitDx=0;exitDy=0;entryX=0.5;entryY=1;entryDx=0;entryDy=0;" edge="1" parent="1" source="CkNUCaQ58HvlYN-jJhcS-46" target="CkNUCaQ58HvlYN-jJhcS-98">
          <mxGeometry width="50" height="50" relative="1" as="geometry">
            <mxPoint x="1010" y="800" as="sourcePoint" />
            <mxPoint x="1060" y="750" as="targetPoint" />
            <Array as="points">
              <mxPoint x="1460" y="730" />
            </Array>
          </mxGeometry>
        </mxCell>
        <mxCell id="CkNUCaQ58HvlYN-jJhcS-106" value="(0,N)" style="edgeLabel;html=1;align=center;verticalAlign=middle;resizable=0;points=[];" vertex="1" connectable="0" parent="CkNUCaQ58HvlYN-jJhcS-100">
          <mxGeometry x="0.9471" y="-1" relative="1" as="geometry">
            <mxPoint as="offset" />
          </mxGeometry>
        </mxCell>
        <mxCell id="CkNUCaQ58HvlYN-jJhcS-101" value="" style="endArrow=none;html=1;rounded=0;exitX=0.5;exitY=0;exitDx=0;exitDy=0;entryX=0.5;entryY=1;entryDx=0;entryDy=0;" edge="1" parent="1" source="CkNUCaQ58HvlYN-jJhcS-99" target="CkNUCaQ58HvlYN-jJhcS-93">
          <mxGeometry width="50" height="50" relative="1" as="geometry">
            <mxPoint x="1390" y="640" as="sourcePoint" />
            <mxPoint x="1440" y="590" as="targetPoint" />
          </mxGeometry>
        </mxCell>
        <mxCell id="CkNUCaQ58HvlYN-jJhcS-109" value="(0,N)" style="edgeLabel;html=1;align=center;verticalAlign=middle;resizable=0;points=[];" vertex="1" connectable="0" parent="CkNUCaQ58HvlYN-jJhcS-101">
          <mxGeometry x="-0.125" y="-1" relative="1" as="geometry">
            <mxPoint as="offset" />
          </mxGeometry>
        </mxCell>
        <mxCell id="CkNUCaQ58HvlYN-jJhcS-102" value="" style="endArrow=none;html=1;rounded=0;exitX=0.5;exitY=0;exitDx=0;exitDy=0;entryX=0.5;entryY=1;entryDx=0;entryDy=0;" edge="1" parent="1" source="CkNUCaQ58HvlYN-jJhcS-98" target="CkNUCaQ58HvlYN-jJhcS-93">
          <mxGeometry width="50" height="50" relative="1" as="geometry">
            <mxPoint x="1380" y="630" as="sourcePoint" />
            <mxPoint x="1420" y="590" as="targetPoint" />
          </mxGeometry>
        </mxCell>
        <mxCell id="CkNUCaQ58HvlYN-jJhcS-110" value="(1,1)" style="edgeLabel;html=1;align=center;verticalAlign=middle;resizable=0;points=[];" vertex="1" connectable="0" parent="CkNUCaQ58HvlYN-jJhcS-102">
          <mxGeometry x="-0.1512" y="1" relative="1" as="geometry">
            <mxPoint as="offset" />
          </mxGeometry>
        </mxCell>
        <mxCell id="CkNUCaQ58HvlYN-jJhcS-103" value="" style="endArrow=none;html=1;rounded=0;exitX=0;exitY=0.5;exitDx=0;exitDy=0;entryX=1;entryY=0.5;entryDx=0;entryDy=0;" edge="1" parent="1" source="CkNUCaQ58HvlYN-jJhcS-95" target="CkNUCaQ58HvlYN-jJhcS-93">
          <mxGeometry width="50" height="50" relative="1" as="geometry">
            <mxPoint x="1470" y="630" as="sourcePoint" />
            <mxPoint x="1420" y="590" as="targetPoint" />
          </mxGeometry>
        </mxCell>
        <mxCell id="CkNUCaQ58HvlYN-jJhcS-104" value="" style="endArrow=none;html=1;rounded=0;exitX=0;exitY=0.5;exitDx=0;exitDy=0;entryX=1;entryY=0.5;entryDx=0;entryDy=0;" edge="1" parent="1" source="CkNUCaQ58HvlYN-jJhcS-94" target="CkNUCaQ58HvlYN-jJhcS-93">
          <mxGeometry width="50" height="50" relative="1" as="geometry">
            <mxPoint x="1520" y="585" as="sourcePoint" />
            <mxPoint x="1480" y="560" as="targetPoint" />
          </mxGeometry>
        </mxCell>
        <mxCell id="CkNUCaQ58HvlYN-jJhcS-108" value="has" style="rhombus;whiteSpace=wrap;html=1;" vertex="1" parent="1">
          <mxGeometry x="1370" y="390" width="80" height="80" as="geometry" />
        </mxCell>
        <mxCell id="CkNUCaQ58HvlYN-jJhcS-111" value="" style="endArrow=none;html=1;rounded=0;exitX=0.5;exitY=0;exitDx=0;exitDy=0;entryX=0.5;entryY=1;entryDx=0;entryDy=0;" edge="1" parent="1" source="CkNUCaQ58HvlYN-jJhcS-93" target="CkNUCaQ58HvlYN-jJhcS-108">
          <mxGeometry width="50" height="50" relative="1" as="geometry">
            <mxPoint x="1500" y="510" as="sourcePoint" />
            <mxPoint x="1550" y="460" as="targetPoint" />
          </mxGeometry>
        </mxCell>
        <mxCell id="CkNUCaQ58HvlYN-jJhcS-113" value="(1, 1)" style="edgeLabel;html=1;align=center;verticalAlign=middle;resizable=0;points=[];" vertex="1" connectable="0" parent="CkNUCaQ58HvlYN-jJhcS-111">
          <mxGeometry x="0.08" y="-1" relative="1" as="geometry">
            <mxPoint as="offset" />
          </mxGeometry>
        </mxCell>
        <mxCell id="CkNUCaQ58HvlYN-jJhcS-112" value="" style="endArrow=none;html=1;rounded=0;exitX=0.5;exitY=0;exitDx=0;exitDy=0;entryX=0.5;entryY=1;entryDx=0;entryDy=0;" edge="1" parent="1" source="CkNUCaQ58HvlYN-jJhcS-108" target="CkNUCaQ58HvlYN-jJhcS-28">
          <mxGeometry width="50" height="50" relative="1" as="geometry">
            <mxPoint x="1420" y="530" as="sourcePoint" />
            <mxPoint x="1420" y="480" as="targetPoint" />
          </mxGeometry>
        </mxCell>
        <mxCell id="CkNUCaQ58HvlYN-jJhcS-114" value="(0, N)" style="edgeLabel;html=1;align=center;verticalAlign=middle;resizable=0;points=[];" vertex="1" connectable="0" parent="CkNUCaQ58HvlYN-jJhcS-112">
          <mxGeometry x="0.3769" y="1" relative="1" as="geometry">
            <mxPoint as="offset" />
          </mxGeometry>
        </mxCell>
      </root>
    </mxGraphModel>
  </diagram>
</mxfile>
